<svg xmlns="http://www.w3.org/2000/svg" version="1.0" width="520" height="480" viewBox="0 0 520.000000 480.000000" preserveAspectRatio="xMidYMid meet">

<g transform="translate(0.000000,480.000000) scale(0.100000,-0.100000)" fill="#ffffff" stroke="none">
<path d="M847 4103 c-4 -3 -7 -264 -7 -580 l0 -573 28 0 c607 -4 1127 2 1134 13 4 6 7 266 5 577 l-2 565 -576 3 c-316 1 -579 -1 -582 -5z" fill="#ffffff"/>
<path d="M3195 4098 c-3 -7 -4 -267 -3 -578 l3 -565 583 -3 583 -2 -3 577 -3 578 -578 3 c-457 2 -579 0 -582 -10z" fill="#ffffff"/>
<path d="M2017 2933 c-4 -3 -7 -136 -7 -295 l0 -288 -290 -2 -289 -3 -1 -860 c-1 -473 -1 -866 -1 -872 1 -20 564 -18 580 1 9 11 12 89 9 295 l-3 281 585 0 585 0 -3 -261 c-2 -143 -1 -276 2 -295 l7 -34 284 0 c180 0 286 4 290 10 3 6 6 394 6 863 -1 468 -1 858 -1 865 0 9 -65 12 -290 12 l-290 0 -2 293 -3 292 -581 3 c-319 1 -584 -1 -587 -5z" fill="#ffffff"/>
</g>
</svg>